<mxfile host="Electron" agent="Mozilla/5.0 (X11; Linux x86_64) AppleWebKit/537.36 (KHTML, like Gecko) draw.io/26.2.2 Chrome/134.0.6998.178 Electron/35.1.2 Safari/537.36" version="26.2.2">
  <diagram name="Page-1" id="tpmm5qy2FPJMLZr56j2t">
    <mxGraphModel dx="969" dy="572" grid="1" gridSize="10" guides="1" tooltips="1" connect="1" arrows="1" fold="1" page="1" pageScale="1" pageWidth="850" pageHeight="1100" math="0" shadow="0">
      <root>
        <mxCell id="0" />
        <mxCell id="1" parent="0" />
        <mxCell id="yN_6NNA6e4bb_lLPipn2-1" value="recursiveLayer (x6)" style="rounded=0;whiteSpace=wrap;html=1;" parent="1" vertex="1">
          <mxGeometry x="80" y="320" width="280" height="40" as="geometry" />
        </mxCell>
        <mxCell id="yN_6NNA6e4bb_lLPipn2-4" style="edgeStyle=orthogonalEdgeStyle;rounded=0;orthogonalLoop=1;jettySize=auto;html=1;exitX=0.5;exitY=0;exitDx=0;exitDy=0;entryX=0.75;entryY=1;entryDx=0;entryDy=0;curved=1;" parent="1" source="yN_6NNA6e4bb_lLPipn2-1" target="yN_6NNA6e4bb_lLPipn2-1" edge="1">
          <mxGeometry relative="1" as="geometry" />
        </mxCell>
        <mxCell id="yN_6NNA6e4bb_lLPipn2-7" value="&lt;font style=&quot;font-size: 36px;&quot;&gt;Recursive Prediction Improvement&lt;/font&gt;" style="text;html=1;strokeColor=none;fillColor=none;align=center;verticalAlign=middle;whiteSpace=wrap;rounded=0;" parent="1" vertex="1">
          <mxGeometry x="40" y="50" width="600" height="30" as="geometry" />
        </mxCell>
        <mxCell id="smJqEGazYK7W-C5HOqsY-8" value="&lt;font style=&quot;font-size: 12px;&quot;&gt;large random projection (untrained)&lt;/font&gt;" style="edgeStyle=orthogonalEdgeStyle;rounded=0;orthogonalLoop=1;jettySize=auto;html=1;entryX=0.5;entryY=0;entryDx=0;entryDy=0;" edge="1" parent="1" source="yN_6NNA6e4bb_lLPipn2-18" target="yN_6NNA6e4bb_lLPipn2-1">
          <mxGeometry relative="1" as="geometry" />
        </mxCell>
        <mxCell id="yN_6NNA6e4bb_lLPipn2-18" value="output" style="rounded=0;whiteSpace=wrap;html=1;fillColor=#d5e8d4;strokeColor=#82b366;verticalAlign=top;" parent="1" vertex="1">
          <mxGeometry x="40" y="160" width="360" height="40" as="geometry" />
        </mxCell>
        <mxCell id="yN_6NNA6e4bb_lLPipn2-21" value="input" style="rounded=0;whiteSpace=wrap;html=1;fillColor=#d5e8d4;strokeColor=#82b366;verticalAlign=top;" parent="1" vertex="1">
          <mxGeometry x="40" y="520" width="360" height="40" as="geometry" />
        </mxCell>
        <mxCell id="RVD_boX8sH5gL-I8M7GE-5" value="layer (l3)" style="rounded=0;whiteSpace=wrap;html=1;" parent="1" vertex="1">
          <mxGeometry x="480" y="360" width="240" height="40" as="geometry" />
        </mxCell>
        <mxCell id="RVD_boX8sH5gL-I8M7GE-9" value="output" style="rounded=0;whiteSpace=wrap;html=1;fillColor=#d5e8d4;strokeColor=#82b366;verticalAlign=top;" parent="1" vertex="1">
          <mxGeometry x="440" y="160" width="320" height="40" as="geometry" />
        </mxCell>
        <mxCell id="smJqEGazYK7W-C5HOqsY-6" style="edgeStyle=orthogonalEdgeStyle;rounded=0;orthogonalLoop=1;jettySize=auto;html=1;entryX=0.5;entryY=1;entryDx=0;entryDy=0;" edge="1" parent="1" source="RVD_boX8sH5gL-I8M7GE-10" target="RVD_boX8sH5gL-I8M7GE-12">
          <mxGeometry relative="1" as="geometry" />
        </mxCell>
        <mxCell id="RVD_boX8sH5gL-I8M7GE-10" value="input" style="rounded=0;whiteSpace=wrap;html=1;fillColor=#d5e8d4;strokeColor=#82b366;verticalAlign=top;" parent="1" vertex="1">
          <mxGeometry x="440" y="520" width="320" height="40" as="geometry" />
        </mxCell>
        <mxCell id="RVD_boX8sH5gL-I8M7GE-11" value="layer (l2)" style="rounded=0;whiteSpace=wrap;html=1;" parent="1" vertex="1">
          <mxGeometry x="480" y="400" width="240" height="40" as="geometry" />
        </mxCell>
        <mxCell id="RVD_boX8sH5gL-I8M7GE-12" value="layer (l1)" style="rounded=0;whiteSpace=wrap;html=1;" parent="1" vertex="1">
          <mxGeometry x="480" y="440" width="240" height="40" as="geometry" />
        </mxCell>
        <mxCell id="smJqEGazYK7W-C5HOqsY-4" style="edgeStyle=orthogonalEdgeStyle;rounded=0;orthogonalLoop=1;jettySize=auto;html=1;entryX=0.5;entryY=1;entryDx=0;entryDy=0;" edge="1" parent="1" source="RVD_boX8sH5gL-I8M7GE-13" target="RVD_boX8sH5gL-I8M7GE-9">
          <mxGeometry relative="1" as="geometry" />
        </mxCell>
        <mxCell id="RVD_boX8sH5gL-I8M7GE-13" value="layer (l6)" style="rounded=0;whiteSpace=wrap;html=1;" parent="1" vertex="1">
          <mxGeometry x="480" y="240" width="240" height="40" as="geometry" />
        </mxCell>
        <mxCell id="RVD_boX8sH5gL-I8M7GE-14" value="layer (l5)" style="rounded=0;whiteSpace=wrap;html=1;" parent="1" vertex="1">
          <mxGeometry x="480" y="280" width="240" height="40" as="geometry" />
        </mxCell>
        <mxCell id="RVD_boX8sH5gL-I8M7GE-15" value="layer (l4)" style="rounded=0;whiteSpace=wrap;html=1;" parent="1" vertex="1">
          <mxGeometry x="480" y="320" width="240" height="40" as="geometry" />
        </mxCell>
        <mxCell id="smJqEGazYK7W-C5HOqsY-1" value="&lt;font style=&quot;font-size: 24px;&quot;&gt;RPI-MLP&lt;/font&gt;" style="text;html=1;strokeColor=none;fillColor=none;align=center;verticalAlign=middle;whiteSpace=wrap;rounded=0;" vertex="1" parent="1">
          <mxGeometry x="140" y="120" width="170" height="30" as="geometry" />
        </mxCell>
        <mxCell id="smJqEGazYK7W-C5HOqsY-2" value="&lt;font style=&quot;font-size: 24px;&quot;&gt;MLP&lt;/font&gt;" style="text;html=1;strokeColor=none;fillColor=none;align=center;verticalAlign=middle;whiteSpace=wrap;rounded=0;" vertex="1" parent="1">
          <mxGeometry x="530" y="120" width="140" height="30" as="geometry" />
        </mxCell>
        <mxCell id="smJqEGazYK7W-C5HOqsY-7" value="&lt;span style=&quot;color: rgb(0, 0, 0); font-family: Helvetica; font-style: normal; font-variant-ligatures: normal; font-variant-caps: normal; font-weight: 400; letter-spacing: normal; orphans: 2; text-align: center; text-indent: 0px; text-transform: none; widows: 2; word-spacing: 0px; -webkit-text-stroke-width: 0px; white-space: nowrap; background-color: rgb(255, 255, 255); text-decoration-thickness: initial; text-decoration-style: initial; text-decoration-color: initial; float: none; display: inline !important;&quot;&gt;&lt;font style=&quot;font-size: 12px;&quot;&gt;large random projection (untrained)&lt;/font&gt;&lt;/span&gt;" style="edgeStyle=orthogonalEdgeStyle;rounded=0;orthogonalLoop=1;jettySize=auto;html=1;entryX=0.5;entryY=1;entryDx=0;entryDy=0;" edge="1" parent="1" source="yN_6NNA6e4bb_lLPipn2-21" target="yN_6NNA6e4bb_lLPipn2-1">
          <mxGeometry relative="1" as="geometry" />
        </mxCell>
        <mxCell id="smJqEGazYK7W-C5HOqsY-10" value="&lt;span style=&quot;color: rgb(0, 0, 0); font-family: Helvetica; font-size: 11px; font-style: normal; font-variant-ligatures: normal; font-variant-caps: normal; font-weight: 400; letter-spacing: normal; orphans: 2; text-align: center; text-indent: 0px; text-transform: none; widows: 2; word-spacing: 0px; -webkit-text-stroke-width: 0px; white-space: nowrap; background-color: rgb(255, 255, 255); text-decoration-thickness: initial; text-decoration-style: initial; text-decoration-color: initial; display: inline !important; float: none;&quot;&gt;each recursive iteration&lt;/span&gt;&lt;br style=&quot;forced-color-adjust: none; color: rgb(0, 0, 0); font-family: Helvetica; font-size: 11px; font-style: normal; font-variant-ligatures: normal; font-variant-caps: normal; font-weight: 400; letter-spacing: normal; orphans: 2; text-align: center; text-indent: 0px; text-transform: none; widows: 2; word-spacing: 0px; -webkit-text-stroke-width: 0px; white-space: nowrap; text-decoration-thickness: initial; text-decoration-style: initial; text-decoration-color: initial;&quot;&gt;&lt;span style=&quot;color: rgb(0, 0, 0); font-family: Helvetica; font-size: 11px; font-style: normal; font-variant-ligatures: normal; font-variant-caps: normal; font-weight: 400; letter-spacing: normal; orphans: 2; text-align: center; text-indent: 0px; text-transform: none; widows: 2; word-spacing: 0px; -webkit-text-stroke-width: 0px; white-space: nowrap; background-color: rgb(255, 255, 255); text-decoration-thickness: initial; text-decoration-style: initial; text-decoration-color: initial; display: inline !important; float: none;&quot;&gt;trained independently&lt;/span&gt;&lt;br style=&quot;forced-color-adjust: none; color: rgb(0, 0, 0); font-family: Helvetica; font-size: 11px; font-style: normal; font-variant-ligatures: normal; font-variant-caps: normal; font-weight: 400; letter-spacing: normal; orphans: 2; text-align: center; text-indent: 0px; text-transform: none; widows: 2; word-spacing: 0px; -webkit-text-stroke-width: 0px; white-space: nowrap; text-decoration-thickness: initial; text-decoration-style: initial; text-decoration-color: initial;&quot;&gt;&lt;span style=&quot;color: rgb(0, 0, 0); font-family: Helvetica; font-size: 11px; font-style: normal; font-variant-ligatures: normal; font-variant-caps: normal; font-weight: 400; letter-spacing: normal; orphans: 2; text-align: center; text-indent: 0px; text-transform: none; widows: 2; word-spacing: 0px; -webkit-text-stroke-width: 0px; white-space: nowrap; background-color: rgb(255, 255, 255); text-decoration-thickness: initial; text-decoration-style: initial; text-decoration-color: initial; display: inline !important; float: none;&quot;&gt;(single layer backprop)&lt;/span&gt;" style="text;html=1;align=center;verticalAlign=middle;whiteSpace=wrap;rounded=0;" vertex="1" parent="1">
          <mxGeometry x="350" y="260" width="60" height="30" as="geometry" />
        </mxCell>
      </root>
    </mxGraphModel>
  </diagram>
</mxfile>
